<svg xmlns="http://www.w3.org/2000/svg" xmlns:xlink="http://www.w3.org/1999/xlink" id="Layer_2" data-name="Layer 2" viewBox="0 0 933.12 240.46">
    <defs>
        <style>
            .cls-1 {
            fill: url(#linear-gradient);
            }

            .cls-2 {
            fill: #ed8001;
            }

            .cls-3 {
            fill: #e8e6dc;
            }

            .cls-4 {
            fill: #fff;
            }

            .cls-5 {
            fill: #1e063d;
            }

            .cls-6 {
            fill: none;
            mask: url(#mask);
            }
        </style>
        <mask id="mask" x="678.8" y="188.17" width="411.96" height="52.43" maskUnits="userSpaceOnUse">
            <g id="mask0_98_342" data-name="mask0 98 342">
                <path class="cls-4" d="m1090.76,188.17h-411.96v52.43h411.96v-52.43Z"/>
            </g>
        </mask>
        <linearGradient id="linear-gradient" x1="0" y1="102.03" x2="204.06" y2="102.03" gradientUnits="userSpaceOnUse">
            <stop offset="0" stop-color="#f44a02"/>
            <stop offset="1" stop-color="#eb9200"/>
        </linearGradient>
    </defs>
    <g id="Layer_1-2" data-name="Layer 1">
        <g>
            <g>
                <g class="cls-6">
                    <g>
                        <path class="cls-5" d="m696.03,221.94c5.71,0,9.76-4.66,9.76-10.29s-3.6-10.29-9.76-10.29-9.76,4.66-9.76,10.29,3.96,10.29,9.76,10.29Zm17.14-10.57c0,9.32-6.84,16.78-17.4,16.78-9.58,0-16.97-7.3-16.97-16.53,0-9.76,7.56-16.61,17.24-16.61s17.14,7.03,17.14,16.35"/>
                        <path class="cls-5" d="m730.66,195.56c-12.75.88-15.74,12.75-15.39,16.27-.18,5.18,3.42,16.35,17.58,16.35,1.72.02,3.43-.16,5.1-.53v-6.33c-1.63.26-3.27.4-4.92.44-1.34.05-2.68-.17-3.94-.65-1.25-.48-2.4-1.21-3.36-2.15-.96-.94-1.73-2.06-2.24-3.3-.51-1.24-.77-2.57-.75-3.92,0-1.34.28-2.66.8-3.89.52-1.23,1.29-2.34,2.24-3.28.96-.93,2.09-1.67,3.34-2.16,1.24-.49,2.57-.73,3.91-.7h11.43v15.65s-.8,13.28,15.91,10.47v-6.22c-9.32,2.02-8.79-3.87-8.79-3.87v-15.95h8.79v-6.25h-8.78v-7.38h-7.12v7.38h-13.82Z"/>
                        <path class="cls-5" d="m779.39,221.94c5.71,0,9.76-4.66,9.76-10.29s-3.6-10.29-9.76-10.29-9.76,4.66-9.76,10.29,4.05,10.29,9.76,10.29Zm17.14-10.57c0,9.32-6.84,16.78-17.4,16.78-9.58,0-17.06-7.3-17.06-16.53,0-9.76,7.56-16.53,17.24-16.53s17.24,6.98,17.24,16.3"/>
                        <path class="cls-5" d="m834.53,214.62v-15.98c.62-4.57,7.04-2.11,7.04-2.11v17.15c0,5.36,3.69,7.91,8.18,7.91s8.17-2.55,8.17-7.91v-14.95c.62-4.57,7.04-2.11,7.04-2.11v11c.88,13.54,13.9,14.59,13.9,14.59,12.92,1.76,11.78-3.52,11.78-3.52-.35-2.64-2.29-3.25-5.8-3.69-2.11-.27-3.96-.44-3.96-.44-13.89-.88-12.49-10.03-12.49-10.03.17-7.74,8.44-8.88,8.44-8.88,7.3-1.32,12.49,0,12.49,0,11.34,2.37,5.81,7.74,4.84,8.08,0,0-2.99-2.82-10.11-3.16-8.7-.53-8.61,3.6-8.61,3.6-.27,2.99,3.6,3.52,3.6,3.52l9.32,1.32c11.08,1.58,9.68,9.41,9.68,9.41-.71,9.88-12.41,9.88-12.41,9.88-16,.97-21.98-7.38-21.98-7.38-2.2,4.48-6.68,7.46-14.16,7.46-8.88,0-14.92-4.75-14.92-13.72"/>
                        <path class="cls-5" d="m815.36,221.94c5.62,0,9.67-4.66,9.67-10.29s-3.6-10.29-9.67-10.29-9.67,4.66-9.67,10.29,4.04,10.29,9.67,10.29Zm-9.58,15.74c-.62,4.57-7.04,2.11-7.04,2.11v-28.14c.44-8.97,5.81-16.35,16.88-16.53,9.76-.18,16.78,7.03,16.89,16.35.09,9.85-6.84,17.15-16.97,16.71-1.86-.06-3.68-.51-5.34-1.33-1.67-.82-3.14-1.98-4.32-3.42-.09-.09-.09,11-.09,14.25"/>
                    </g>
                </g>
                <g>
                    <path class="cls-5" d="m406.77,217.19c0-.74.02-1.39.07-1.95s.1-1.07.16-1.5c.28-1.5.75-2.85,1.43-4.05.67-1.2,1.52-2.21,2.53-3.04,1.01-.83,2.18-1.46,3.5-1.91,1.32-.44,2.74-.67,4.28-.67,1.78,0,3.42.31,4.92.94,1.5.63,2.79,1.49,3.86,2.58,1.07,1.09,1.91,2.36,2.51,3.82.6,1.46.9,3.01.9,4.67s-.3,3.26-.9,4.71c-.6,1.46-1.43,2.73-2.51,3.82-1.07,1.09-2.36,1.94-3.86,2.55-1.5.61-3.14.92-4.92.92-1.96,0-3.73-.41-5.29-1.22-1.56-.81-2.78-1.88-3.63-3.2v12.97h-3.04v-19.45Zm20.88-1.1c0-1.29-.21-2.51-.62-3.66s-1.01-2.15-1.79-2.99c-.78-.84-1.72-1.51-2.81-2-1.09-.49-2.32-.74-3.7-.74s-2.57.24-3.66.71c-1.09.48-2.02,1.13-2.78,1.95-.77.83-1.36,1.82-1.79,2.97-.43,1.15-.64,2.4-.64,3.75s.21,2.51.64,3.66,1.04,2.15,1.82,2.99c.78.84,1.72,1.52,2.81,2.02,1.09.51,2.29.76,3.61.76s2.61-.24,3.7-.71c1.09-.47,2.02-1.14,2.81-2,.78-.86,1.38-1.86,1.79-2.99.41-1.13.62-2.38.62-3.73Z"/>
                    <path class="cls-5" d="m459.33,216.08c0,1.66-.31,3.21-.92,4.67s-1.46,2.73-2.55,3.82c-1.09,1.09-2.38,1.95-3.89,2.58-1.5.63-3.14.94-4.92.94s-3.42-.31-4.92-.94c-1.5-.63-2.8-1.49-3.89-2.58-1.09-1.09-1.94-2.36-2.55-3.82-.61-1.46-.92-3.01-.92-4.67s.31-3.26.92-4.71c.61-1.46,1.46-2.73,2.55-3.82,1.09-1.09,2.38-1.94,3.89-2.55,1.5-.61,3.14-.92,4.92-.92s3.42.31,4.92.92c1.5.61,2.8,1.46,3.89,2.55,1.09,1.09,1.94,2.36,2.55,3.82s.92,3.03.92,4.71Zm-3.27,0c0-1.32-.21-2.55-.64-3.7-.43-1.15-1.04-2.15-1.84-3.01-.8-.86-1.75-1.52-2.85-2-1.1-.48-2.33-.71-3.68-.71s-2.58.24-3.68.71c-1.1.48-2.05,1.14-2.85,2-.8.86-1.41,1.86-1.84,3.01-.43,1.15-.64,2.38-.64,3.7s.22,2.51.67,3.66,1.06,2.15,1.84,2.99c.78.84,1.72,1.51,2.83,2,1.1.49,2.33.74,3.68.74s2.58-.25,3.68-.74c1.1-.49,2.05-1.16,2.85-2,.8-.84,1.41-1.84,1.84-2.99.43-1.15.64-2.37.64-3.66Z"/>
                    <path class="cls-5" d="m471.06,224.73c.49-1.38.97-2.76,1.45-4.14.47-1.38.96-2.8,1.45-4.25.49-1.46,1-2.99,1.52-4.6.52-1.61,1.06-3.35,1.61-5.22.21-.71.51-1.18.87-1.43s.86-.37,1.47-.37c.43,0,.79.05,1.08.16.29.11.48.19.57.25.4,1.38.87,2.9,1.4,4.55.54,1.66,1.1,3.35,1.7,5.08s1.2,3.46,1.79,5.17,1.17,3.31,1.72,4.78c1.17-3.1,2.32-6.22,3.47-9.38,1.15-3.16,2.14-6.22,2.97-9.2.15-.49.35-.85.6-1.08.25-.23.63-.34,1.15-.34.43,0,.78.08,1.06.23.28.15.44.26.51.32-.28,1.13-.71,2.58-1.31,4.35-.6,1.76-1.27,3.66-2.02,5.7s-1.54,4.11-2.37,6.21c-.83,2.1-1.61,4.07-2.35,5.91h-3.68c-.34-.8-.77-1.92-1.29-3.38s-1.09-3.06-1.7-4.81c-.61-1.75-1.23-3.56-1.86-5.45-.63-1.89-1.2-3.67-1.72-5.36-.52,1.72-1.08,3.51-1.68,5.38-.6,1.87-1.19,3.67-1.77,5.4-.58,1.73-1.13,3.32-1.66,4.76-.52,1.44-.94,2.59-1.24,3.45h-3.68c-.74-1.9-1.5-3.91-2.3-6.02-.8-2.12-1.53-4.08-2.21-5.89-.67-1.81-1.24-3.36-1.7-4.65-.46-1.29-.74-2.05-.83-2.3-.12-.34-.25-.72-.39-1.15-.14-.43-.21-.8-.21-1.1,0-.43.14-.8.41-1.13.28-.32.69-.48,1.24-.48.34,0,.61.03.83.09.21.06.35.11.41.14.34,1.35.77,2.86,1.31,4.53.54,1.67,1.12,3.39,1.75,5.15.63,1.76,1.26,3.52,1.89,5.27.63,1.75,1.2,3.36,1.72,4.83Z"/>
                    <path class="cls-5" d="m502.79,218.06c.34,2.36,1.32,4.18,2.94,5.47,1.62,1.29,3.77,1.93,6.44,1.93,1.56,0,2.89-.22,3.98-.67,1.09-.44,1.92-.83,2.51-1.17l1.33,2.21c-.25.15-.61.36-1.1.62-.49.26-1.09.51-1.79.76-.71.24-1.5.45-2.39.62-.89.17-1.87.25-2.94.25-1.69,0-3.27-.25-4.76-.76-1.49-.51-2.79-1.25-3.91-2.23-1.12-.98-2-2.19-2.64-3.63-.64-1.44-.97-3.11-.97-5.01s.31-3.52.92-5.04c.61-1.52,1.47-2.82,2.58-3.91,1.1-1.09,2.41-1.93,3.93-2.53s3.18-.9,4.99-.9c1.53,0,2.87.18,4.02.53,1.15.35,2.11.85,2.87,1.5.77.64,1.34,1.4,1.72,2.28.38.87.58,1.82.58,2.83s-.21,1.94-.62,2.78c-.41.84-1.12,1.58-2.12,2.21-1,.63-2.33,1.12-4,1.47-1.67.35-3.78.53-6.32.53-.98,0-1.88,0-2.69-.02s-1.66-.05-2.55-.12Zm-.09-2.39c.83.06,1.63.1,2.42.12.78.02,1.6.02,2.46.02,2.08,0,3.8-.13,5.15-.39,1.35-.26,2.41-.6,3.2-1.04.78-.43,1.33-.93,1.63-1.52.31-.58.46-1.2.46-1.84,0-.86-.18-1.58-.53-2.16-.35-.58-.83-1.05-1.43-1.4s-1.27-.61-2.02-.76c-.75-.15-1.53-.23-2.32-.23-1.44,0-2.71.25-3.82.76s-2.03,1.19-2.78,2.05c-.75.86-1.33,1.84-1.75,2.94s-.64,2.25-.67,3.45Z"/>
                    <path class="cls-5" d="m540.5,206.38c0,.31-.08.58-.25.83-.17.25-.33.44-.48.6-.52-.25-1.18-.47-1.98-.69-.8-.21-1.73-.32-2.81-.32-1.26,0-2.31.15-3.15.46-.84.31-1.53.76-2.05,1.36-.52.6-.89,1.34-1.1,2.23-.21.89-.32,1.9-.32,3.04v13.57h-3.04v-14.99c0-2.67.8-4.73,2.39-6.19,1.59-1.46,3.92-2.18,6.99-2.18,1.66,0,3.04.18,4.14.55,1.1.37,1.66.95,1.66,1.75Z"/>
                    <path class="cls-5" d="m545.33,218.06c.34,2.36,1.32,4.18,2.94,5.47,1.62,1.29,3.77,1.93,6.44,1.93,1.56,0,2.89-.22,3.98-.67,1.09-.44,1.92-.83,2.51-1.17l1.33,2.21c-.25.15-.61.36-1.1.62-.49.26-1.09.51-1.79.76-.71.24-1.5.45-2.39.62-.89.17-1.87.25-2.94.25-1.69,0-3.27-.25-4.76-.76-1.49-.51-2.79-1.25-3.91-2.23-1.12-.98-2-2.19-2.64-3.63-.64-1.44-.97-3.11-.97-5.01s.31-3.52.92-5.04c.61-1.52,1.47-2.82,2.58-3.91,1.1-1.09,2.41-1.93,3.93-2.53s3.18-.9,4.99-.9c1.53,0,2.87.18,4.02.53,1.15.35,2.11.85,2.87,1.5.77.64,1.34,1.4,1.72,2.28.38.87.58,1.82.58,2.83s-.21,1.94-.62,2.78c-.41.84-1.12,1.58-2.12,2.21-1,.63-2.33,1.12-4,1.47-1.67.35-3.78.53-6.32.53-.98,0-1.88,0-2.69-.02s-1.66-.05-2.55-.12Zm-.09-2.39c.83.06,1.63.1,2.42.12.78.02,1.6.02,2.46.02,2.08,0,3.8-.13,5.15-.39,1.35-.26,2.41-.6,3.2-1.04.78-.43,1.33-.93,1.63-1.52.31-.58.46-1.2.46-1.84,0-.86-.18-1.58-.53-2.16-.35-.58-.83-1.05-1.43-1.4s-1.27-.61-2.02-.76c-.75-.15-1.53-.23-2.32-.23-1.44,0-2.71.25-3.82.76s-2.03,1.19-2.78,2.05c-.75.86-1.33,1.84-1.75,2.94s-.64,2.25-.67,3.45Z"/>
                    <path class="cls-5" d="m588.05,195.11c0-.46.13-.83.39-1.13.26-.29.68-.44,1.26-.44.28,0,.54.04.8.12.26.08.45.15.58.21v21.11c0,.74-.02,1.39-.07,1.95-.05.57-.1,1.07-.16,1.5-.28,1.5-.75,2.85-1.42,4.05-.67,1.2-1.52,2.21-2.53,3.04s-2.18,1.46-3.5,1.91c-1.32.44-2.74.67-4.28.67-1.81,0-3.46-.31-4.94-.94s-2.77-1.49-3.84-2.58c-1.07-1.09-1.91-2.36-2.51-3.82s-.9-3.01-.9-4.67.3-3.26.9-4.71,1.43-2.73,2.51-3.82c1.07-1.09,2.35-1.94,3.84-2.55,1.49-.61,3.13-.92,4.94-.92,2.02,0,3.79.4,5.29,1.2,1.5.8,2.71,1.89,3.63,3.27v-13.43Zm-17.84,20.97c0,1.29.21,2.51.62,3.66s1.01,2.15,1.79,2.99c.78.84,1.72,1.51,2.81,2,1.09.49,2.32.74,3.7.74s2.53-.23,3.63-.69,2.04-1.1,2.81-1.93c.77-.83,1.36-1.81,1.79-2.94.43-1.13.64-2.38.64-3.73s-.22-2.56-.67-3.72c-.45-1.17-1.06-2.18-1.84-3.04-.78-.86-1.72-1.53-2.81-2.02-1.09-.49-2.28-.74-3.56-.74-1.38,0-2.61.24-3.7.71-1.09.48-2.02,1.14-2.81,2-.78.86-1.38,1.86-1.79,3.01s-.62,2.38-.62,3.7Z"/>
                    <path class="cls-5" d="m607.46,195.11c0-.46.13-.83.39-1.13.26-.29.68-.44,1.26-.44.28,0,.54.04.8.12.26.08.45.15.58.21v14.81c.98-1.38,2.25-2.49,3.82-3.33,1.56-.84,3.26-1.26,5.1-1.26s3.42.31,4.92.92c1.5.61,2.79,1.46,3.86,2.55,1.07,1.09,1.91,2.36,2.51,3.82.6,1.46.9,3.03.9,4.71s-.3,3.21-.9,4.67c-.6,1.46-1.43,2.73-2.51,3.82-1.07,1.09-2.36,1.95-3.86,2.58-1.5.63-3.14.94-4.92.94-1.53,0-2.96-.22-4.28-.67-1.32-.44-2.48-1.08-3.5-1.91s-1.86-1.84-2.53-3.04c-.67-1.2-1.15-2.54-1.43-4.05-.06-.43-.12-.93-.16-1.5-.05-.57-.07-1.22-.07-1.95v-19.87Zm20.88,20.97c0-1.32-.21-2.55-.62-3.7s-1.01-2.15-1.79-3.01c-.78-.86-1.72-1.52-2.81-2-1.09-.48-2.32-.71-3.7-.71s-2.57.24-3.66.71c-1.09.48-2.02,1.14-2.81,2-.78.86-1.39,1.86-1.82,3.01-.43,1.15-.64,2.38-.64,3.7s.21,2.6.64,3.75c.43,1.15,1.04,2.14,1.82,2.97.78.83,1.72,1.48,2.81,1.95,1.09.48,2.31.71,3.66.71s2.61-.25,3.7-.74c1.09-.49,2.02-1.16,2.81-2,.78-.84,1.38-1.84,1.79-2.99s.62-2.37.62-3.66Z"/>
                    <path class="cls-5" d="m657.77,225.79c0,1.99-.28,3.7-.83,5.13-.55,1.42-1.33,2.6-2.35,3.52s-2.23,1.59-3.66,2.02-3.03.64-4.81.64c-2.3,0-4.21-.19-5.73-.58-1.52-.38-2.58-.7-3.2-.94l.87-2.39c.61.25,1.59.53,2.94.85,1.35.32,3.04.48,5.06.48,1.13,0,2.23-.12,3.29-.37,1.06-.25,1.98-.67,2.78-1.29.8-.61,1.43-1.46,1.91-2.53.48-1.07.71-2.42.71-4.05v-2.12c-.58,1.17-1.59,2.11-3.01,2.83-1.43.72-3.1,1.08-5.04,1.08-3.34,0-5.9-.87-7.68-2.62s-2.67-4.12-2.67-7.13v-12.05c0-.46.13-.83.39-1.13.26-.29.68-.44,1.26-.44.28,0,.54.04.8.12s.45.15.58.21v12.65c0,2.45.6,4.36,1.79,5.73,1.2,1.37,3.08,2.05,5.66,2.05s4.65-.74,5.93-2.21c1.29-1.47,1.93-3.48,1.93-6.03v-10.95c0-.46.13-.83.39-1.13.26-.29.68-.44,1.26-.44.28,0,.54.04.81.12.26.08.45.15.57.21v20.74Z"/>
                </g>
            </g>
            <path class="cls-2" d="m915.7,61.47c-9.61,0-17.42-7.82-17.42-17.42s7.82-17.42,17.42-17.42,17.42,7.82,17.42,17.42-7.82,17.42-17.42,17.42Zm0-31.85c-7.95,0-14.42,6.47-14.42,14.42s6.47,14.42,14.42,14.42,14.42-6.47,14.42-14.42-6.47-14.42-14.42-14.42Z"/>
            <path class="cls-2" d="m918.28,46.22c3.4-1.03,4.82-3.34,4.56-6.85-.21-2.73-2.53-5.18-5.28-5.22-2.66-.05-5.32.02-7.98.04,0,6.11,0,12.22.13,18.48h0v.85h3.61v-7.53l5.81,7.53h4.95c-2.09-2.63-3.92-4.95-5.79-7.3Zm-2.11-3.16h-2.78v-5.84h2.78c1.61,0,2.92,1.31,2.92,2.92s-1.31,2.92-2.92,2.92Z"/>
            <circle class="cls-1" cx="102.03" cy="102.03" r="102.03"/>
            <path class="cls-3" d="m53.28,59.28c4.31-5.6,9.19-10.47,15.05-14.45,4.87-3.03,9.83-5.63,15.37-6.96.73-.17,1.46-.34,2.3-.55,3.37-.21,6.63-.53,9.88-.53,4.52,0,8.83.97,12.69,3.71,6.05,5.35,5.65,12.24,4.78,19.47,6.24.5,12.11,2.18,17.8,4.86,3.7,2.46,7.44,4.72,10.85,7.4,4.44,3.49,7.79,8.02,10.92,12.82,3.09,5.42,5.69,10.96,6.82,17.02.63,3.36.89,6.8,1.13,10.21.67,9.5-1.58,18.41-5.8,26.98-3.23,5.9-7.01,11.26-12.07,15.62-1.78,1.53-3.69,2.9-5.61,4.41-5.39,3.44-11.09,5.87-17.4,7.14-3.35.33-6.59.8-9.83.84-3.51.05-6.92-.68-10.09-2.57-5.48-3.9-6.82-9.31-6.02-15.29-4.95-1.5-9.8-2.96-14.77-4.4-2.86-1.58-5.69-3.08-8.35-4.82-4.81-3.13-8.96-7.03-12.77-11.43-5.68-6.93-10.15-14.45-12.55-23.04-1.06-3.78-1.83-7.69-2.27-11.6-1.45-12.9,2.46-24.34,9.92-34.85m47.37,7.67c-1.64.29-3.3.53-4.93.88-3.71.79-7.32,1.92-9.99,4.8-2.35,2.53-3.56,5.43-2.5,9.04,1.32,4.51,4.03,8.15,6.88,11.73,3.75,4.7,7.56,9.35,10.34,14.97.27.59.54,1.18.8,1.78,2.23,5.01,3.07,10.25,2.67,15.71-.21,2.88-.32,5.78-.59,8.66-.24,2.53-.63,5.06-1,7.88,1.72-.25,3.27-.42,4.8-.7,4.66-.85,9.15-2.24,13.37-4.42,4.2-2.17,5.66-5.85,3.86-10.2-.85-2.07-1.94-4.09-3.25-5.9-3.23-4.47-6.72-8.75-9.98-13.21-4.9-6.71-7.87-14.11-7.51-22.58.13-2.93.38-5.86.62-8.79.1-1.18.34-2.34.47-3.52.23-2.11.41-4.22.63-6.46-1.59.14-3.02.26-4.69.35m36.85,10.23c-.93-.69-1.89-1.36-2.79-2.09-3-2.43-6.31-4.29-10.11-5.7-3.98-1.55-8.08-2.54-12.44-2.77-.65,6.31-1.45,12.44-1.86,18.6-.34,5.09.79,10.06,3.55,14.34,3.14,4.87,6.79,9.42,10.29,14.31,2.55,3.36,5.12,6.72,6.52,10.75,2.07,5.97,1.57,11.52-3.39,15.95-1.73,1.54-3.9,2.57-6.1,3.84-5.48,2.4-11.19,3.97-17.15,4.46-3.4.28-3.41.11-3.41,3.62,0,.1,0,.2,0,.3-.15,4.12,2.8,6.85,5.95,7.31,5.01.73,9.96.41,15.06-1,1.28-.41,2.57-.79,3.83-1.25,4.57-1.64,8.55-4.27,12.44-7.44,9.93-8.68,15.35-19.67,16.3-32.74.3-4.09.07-8.33-.66-12.37-2.01-11.12-7.33-20.5-16.04-28.12m-57.13-31.1c-7.66,3.09-13.95,8.04-19.29,14.26-7.45,8.68-11.4,18.75-11.36,30.21.01,3.12.7,6.27,1.34,9.36,1.52,7.37,4.63,14.08,8.97,20.2,4.94,6.97,10.97,12.76,18.68,17,4.82,2.52,9.88,4.25,15.3,4.97,1.42.19,1.63-.33,1.74-1.4.41-3.88.78-7.76,1.27-11.63.49-3.85.51-7.68-.34-11.46-1.39-6.18-4.87-11.28-8.73-16.14-3.43-4.32-7.01-8.53-9.61-13.69-.57-1.65-1.19-3.27-1.69-4.94-.77-2.57-.72-5.22.03-7.75.87-2.94,2.48-5.53,4.86-7.81,1.3-.94,2.52-2.01,3.9-2.8,5.94-3.39,12.54-4.17,19.2-4.43,1.49-.06,2.12-.55,2.17-1.89.08-2.17.16-4.34.1-6.51-.11-4.32-2.75-7.04-6.97-7.65-3.37-.49-6.73-1.03-10.11-.26-3.1.7-6.17,1.55-9.47,2.37Z"/>
            <g>
                <path class="cls-2" d="m472.79,82.41c-1.51-6.82-4.83-12.68-10.44-16.99-5.91-4.54-12.83-6.38-20.13-6.56-4.03-.1-8.11.28-12.1.91-6.28.99-11.32,4.28-15.18,9.34-1.23,1.62-2.38,3.3-3.61,5.02-.22-.38-.43-.78-.66-1.16-.26-.43-.54-.85-.79-1.28-2.76-4.83-6.86-8.08-11.97-10.12-3.66-1.46-7.48-2.13-11.41-2.52-5.4-.54-10.69-.39-15.9,1.27-4.2,1.34-7.96,3.48-11.57,6.14-.39-2.22-.76-4.31-1.12-6.36h-8.71v85.99h10.07v-1.94c0-21.44.04-42.88-.07-64.32-.01-2.21.67-3.69,2.29-4.95.32-.25.68-.43.98-.69,4.94-4.18,10.81-5.92,17.11-6.1,3.25-.1,6.58.28,9.79.9,7.2,1.4,12.1,5.69,14.87,12.52,2,4.93,2.31,10.13,2.37,15.29.16,14.46.04,28.93.08,43.39,0,.12,0,.25.01.37h0v5.55h9.82l-.02-.02h.02v-1.78c0-16.41-.07-32.83.06-49.24.03-3.71.43-7.49,1.25-11.1,1.32-5.76,4.55-10.27,10.02-13.03,4.23-2.14,8.71-2.67,13.35-2.64,5.09.03,9.67,1.5,13.87,4.55.81.71,1.62,1.26,2.25,1.97,4.34,4.92,6.48,10.8,6.55,17.23.17,17.44.06,34.88.06,52.32v1.74h10.31c.06-.17.13-.26.13-.35-.09-17.88-.13-35.76-.34-53.64-.04-3.25-.52-6.54-1.23-9.72Z"/>
                <path class="cls-2" d="m768.49,92.18c-2.06-8.8-5.97-16.63-12.8-22.78-3.36-3.02-7.12-5.37-11.36-6.93-5.89-2.16-11.94-3-18.22-2.49-4.69.38-9.06,1.58-13.08,4.02-1.56.95-3.09,1.95-4.78,3.01V27.7c-2.86,0-5.61,0-8.37,0q-2.05,0-2.05,1.99c0,38.26,0,76.52,0,114.78v1.63h8.81c.38-2.55.74-5,1.09-7.3,2.07,1.52,3.98,3.23,6.15,4.45,6.77,3.83,14.16,4.49,21.71,3.51,4.78-.62,9.4-1.97,13.73-4.47,2.9-2.18,5.99-4.01,8.46-6.47,3.46-3.44,6.05-7.59,7.98-12.13,2.02-4.75,3.28-9.68,3.74-14.79.25-2.81.18-5.66,0-8.48-.16-2.76-.38-5.56-1.01-8.24Zm-12.46,27.78c-2.39,5.21-5.76,9.61-10.51,12.79-4.17,2.8-8.83,4.32-13.89,4.9-4.77.54-9.23-.15-13.47-2.24-3.67-1.81-6.7-4.5-9.15-7.78-.47-.62-.7-1.56-.71-2.36-.06-4.67-.03-9.33-.03-14,0-10.82.02-21.33-.03-31.84,0-1.31.5-2.25,1.38-3.04,3.22-2.88,6.84-5.11,11.05-6.18,4.31-1.1,8.64-1.54,13.13-.72,4.85.88,9.19,2.58,13.13,5.56,3.16,2.39,5.64,5.3,7.62,8.66,2.55,4.32,4.1,9.05,4.75,13.99,1.02,7.7-.03,15.14-3.3,22.27Z"/>
                <path class="cls-2" d="m885.96,69.17c-6.46-6.12-14.19-9.25-22.81-10.01-4.53-.4-9.12-.22-13.64.83-7.12,1.64-13.38,4.84-18.61,9.95-3.89,3.8-6.86,8.23-9.08,13.23-2.68,6.01-4.03,12.3-4.22,18.82-.08,2.62.3,5.25.58,7.87.54,4.97,2.05,9.69,4.17,14.19,2.62,5.53,6.14,10.38,10.89,14.33,3.4,2.82,7.11,5.07,11.24,6.58,6.62,2.41,13.44,2.92,20.44,2.21,4.92-.5,9.51-1.93,13.89-4.07,3.87-1.89,7.24-4.54,10.37-7.48,1.18-1.11,2.12-2.46,3.24-3.78-2.73-1.89-5.27-3.66-7.8-5.42-9.68,12.2-28.12,13.42-38.85,8.41-12.02-5.61-18.18-19.16-18.25-28.32h71.04c1.44-14.42-1.84-27.07-12.61-37.33Zm-39.63,28.39h-19.03c1.43-8.75,4.51-16.59,11.5-22.09,10.77-8.49,22.8-9.25,34.82-3.3,10.12,5.01,15,14.03,16.1,25.4h-43.39Z"/>
                <path class="cls-2" d="m327.51,81.91c-1.49-8.25-6.06-14.45-13.44-18.48-4.63-2.53-9.6-4.11-14.89-4.3-4.51-.17-9.1-.49-13.55.08-7.48.95-14.36,3.83-20.64,8.1-1.25.85-1.8,1.46-.7,2.93,1.4,1.85,2.51,3.91,3.8,5.96.42-.39.65-.67.94-.86,5.87-3.88,12.29-6.45,19.31-6.92,6.21-.42,12.46-.28,18.42,2.07,4.26,1.68,7.62,4.47,9.63,8.53,2.54,5.13,2.45,10.74,2.17,16.42-1.91-.86-3.72-1.67-5.53-2.49-4.67-2.09-9.62-3.26-14.66-3.59-3.98-.26-8.02.16-12.01.56-5.59.56-10.83,2.32-15.69,5.19-4.76,2.8-8.57,6.53-11.11,11.45-2.99,5.8-3.42,11.95-2.13,18.24,1.39,6.73,4.89,12.22,10.43,16.29,5.78,4.25,12.43,6.12,19.65,6.66,3.28,0,6.43.19,9.55-.04,6.39-.47,12.14-2.86,17.44-6.4,1.51-1.01,2.93-2.14,4.34-3.19.49,2.69.97,5.35,1.45,7.98h8.21v-1.94c0-17.02.05-34.05-.04-51.07-.02-3.73-.28-7.51-.94-11.17Zm-8.9,44.94c0,.58-.27,1.33-.69,1.71-5.43,5.01-11.64,8.49-19.03,9.64-.74.12-1.49.21-2.24.31-4.97.79-9.53-.06-14.06-1.1-3.73-.86-7.08-2.56-9.94-5.08-2.83-2.49-4.58-5.73-5.34-9.41-.86-4.21-.48-8.34,1.51-12.21,1.59-3.08,3.98-5.51,6.96-7.24,3.89-2.27,8.11-3.68,12.63-4.05,2.62-.21,5.26-.67,7.87-.57,7.52.29,14.68,2.08,21.28,5.8.52.29,1.02,1.14,1.03,1.74.07,6.82.06,13.64.02,20.46Z"/>
                <path class="cls-2" d="m678.98,81.76c-1.12-6.65-4.54-12.11-9.98-16.15-5.85-4.34-12.65-6.31-19.79-6.75-4.9-.3-9.83-.29-14.73.8-6.91,1.53-13.23,4.23-18.93,8.4-.27.2-.51.88-.38,1.11,1.42,2.33,2.93,4.61,4.41,6.9,7.33-5.2,13.07-7.04,20.1-7.64,5.93-.51,11.97-.42,17.72,1.75,3.13,1.18,6,2.7,8.18,5.39,2.53,3.11,3.98,6.59,4.23,10.56.19,3.07.29,6.14.43,9.46-1.05-.49-1.74-.77-2.39-1.12-5.55-3.03-11.58-4.58-17.78-5.12-4.64-.4-9.31-.1-13.96.79-8.69,1.66-16.39,4.98-22.12,12.01-3.58,4.39-5.49,9.45-5.7,15.07-.21,5.42.98,10.59,3.58,15.51,2.17,3.97,5.25,7,8.87,9.37,6.17,4.03,13.18,5.57,20.43,5.9,3.17.14,6.4-.15,9.55-.6,5.96-.84,11.33-3.22,16.2-6.76,1.12-.81,2.21-1.64,3.36-2.5.51,2.79,1,5.43,1.47,7.97h8.23c0-.7,0-1.31,0-1.92,0-16.72.06-33.44-.04-50.16-.02-4.09-.27-8.23-.95-12.25Zm-8.9,44.58c0,.71-.38,1.57-.88,2.09-5.17,5.43-11.58,8.49-18.93,9.78-7.41,1.3-14.59.43-21.37-2.68-5.61-2.58-9.13-7.07-10.2-13.31-.73-4.22-.29-8.22,1.85-11.98,1.66-2.92,4.02-5.14,6.9-6.86,3.85-2.3,8.02-3.57,12.47-3.97,2.52-.23,5.05-.66,7.56-.57,7.88.28,15.37,2.16,22.24,6.16.24.68.39,1.17.39,1.66.02,6.56.04,13.12-.03,19.69Z"/>
                <path class="cls-2" d="m581.72,134.36c-6.38,3.23-13.25,4.02-20.2,2.83-7.37-1.26-13.49-4.9-18.25-10.84-5.13-6.41-7.59-13.77-7.87-21.82-.12-3.43.46-6.96,1.2-10.33,1.8-8.21,6.08-15.01,12.97-19.86,6.28-4.42,13.33-6.16,21.12-5.47,6.74.6,12.65,2.93,17.99,6.88,1,.74,1.46.64,2.03-.28.19-.3.42-.57.64-.84,1.33-1.62,2.66-3.24,4.01-4.89-3.08-3.12-6.44-5.55-10.41-7.34-4.14-1.99-8.46-2.97-12.86-3.23-4.65-.27-9.33-.23-13.96.83-8.22,1.89-15.18,5.83-20.89,12.07-3.61,3.95-6.37,8.37-8.43,13.29-3.6,8.62-4.52,17.55-2.98,26.69.87,5.19,2.63,10.13,5.27,14.75,3.69,6.47,8.64,11.67,15.06,15.41,8.75,5.09,18.31,6.17,28.12,4.84,6.31-.85,12.15-3.33,17.39-7.02,1.66-1.17,3.17-2.55,4.72-3.81-2.21-2.56-4.19-4.85-5.97-6.91-2.92,1.71-5.74,3.56-8.72,5.07Z"/>
                <path class="cls-2" d="m798.18,130.36c-1.1-3.4-1.26-6.94-1.25-10.64V28.12h-10.46v1.95c0,29.13-.04,58.26.04,87.39.01,4.19.36,8.41.94,12.56.61,4.37,2.46,8.34,5.78,11.33,4.86,4.38,10.83,5.36,17.24,5.11v-9.06c-1.3-.17-2.4-.39-3.5-.43-4.16-.17-7.5-2.62-8.8-6.62Z"/>
                <path class="cls-2" d="m496,146.1h10.08V60.14h-10.08v85.96Z"/>
                <path class="cls-2" d="m505.97,28.32c-3.23,0-6.35-.01-9.47.02-.3,0-.59.34-.88.67,0,4.54,0,8.94,0,13.37h10.36v-14.07Z"/>
            </g>
        </g>
    </g>
</svg>