<svg xmlns="http://www.w3.org/2000/svg" width="160" height="36" fill="none"><path fill="#000" fill-rule="evenodd" d="M36.158 17.867c0 9.818-8.094 17.777-18.079 17.777C8.094 35.644 0 27.685 0 17.867 0 8.048 8.094.089 18.08.089c9.984 0 18.078 7.96 18.078 17.778Zm-18.079 7.11v3.556c-1.424 0-2.835-.276-4.151-.812a10.862 10.862 0 0 1-3.52-2.312 10.657 10.657 0 0 1-2.35-3.46 10.513 10.513 0 0 1-.826-4.082h3.615c0 3.927 3.238 7.11 7.232 7.11ZM22.23 8.013a11.007 11.007 0 0 0-4.15-.812v3.555a7.252 7.252 0 0 1 6.263 3.556H18.08v3.556h10.848c0-1.401-.281-2.788-.826-4.082a10.655 10.655 0 0 0-2.352-3.46 10.861 10.861 0 0 0-3.519-2.313Z" clip-rule="evenodd"/><path fill="#000" d="M53.793 28.504c-2.089 0-3.923-.447-5.503-1.342a9.547 9.547 0 0 1-3.615-3.787c-.857-1.63-1.285-3.472-1.285-5.523 0-2.026.415-3.84 1.245-5.445a9.272 9.272 0 0 1 3.575-3.788c1.553-.947 3.374-1.42 5.462-1.42 2.035 0 3.763.447 5.182 1.341 1.419.868 2.49 2.105 3.213 3.71.75 1.577 1.125 3.431 1.125 5.562 0 .42-.014.79-.04 1.105H47.888c.134 1.946.723 3.419 1.768 4.418 1.044.974 2.436 1.46 4.177 1.46 1.312 0 2.383-.302 3.213-.907.83-.605 1.54-1.447 2.13-2.525l3.694 1.341c-.83 1.894-2.021 3.34-3.574 4.34-1.527.973-3.361 1.46-5.503 1.46Zm4.9-12.704c-.08-1.578-.576-2.775-1.486-3.59-.884-.842-2.062-1.263-3.535-1.263-1.5 0-2.744.421-3.735 1.263-.991.815-1.634 2.012-1.928 3.59h10.684ZM65.85 27.873V7.83h4.619v2.92c.67-1.131 1.553-2 2.65-2.604 1.099-.631 2.357-.947 3.777-.947 2.302 0 4.097.737 5.382 2.21 1.312 1.446 1.968 3.458 1.968 6.036v12.428h-4.66V15.76c0-1.525-.347-2.682-1.044-3.471-.696-.816-1.727-1.223-3.092-1.223-.964 0-1.821.262-2.571.788-.75.5-1.339 1.21-1.767 2.131-.429.92-.643 1.999-.643 3.235v10.653h-4.62ZM97.127 36c-2.383 0-4.445-.513-6.186-1.539-1.714-1.026-2.852-2.472-3.414-4.34l4.418-1.144c.402 1.079 1.058 1.894 1.968 2.446.91.553 2.022.829 3.334.829 1.125 0 2.076-.197 2.852-.592a3.91 3.91 0 0 0 1.808-1.775c.428-.763.642-1.71.642-2.84V24.4a8.352 8.352 0 0 1-2.932 2.328c-1.125.552-2.37.828-3.736.828-1.82 0-3.44-.42-4.86-1.262-1.419-.869-2.53-2.065-3.334-3.59-.803-1.553-1.204-3.315-1.204-5.287 0-1.973.401-3.735 1.204-5.287.804-1.552 1.915-2.762 3.334-3.63 1.42-.868 3.04-1.302 4.86-1.302 1.366 0 2.625.276 3.776.829a7.816 7.816 0 0 1 2.892 2.367V7.83h4.579v19.135c0 1.868-.415 3.472-1.245 4.814-.803 1.367-1.968 2.406-3.494 3.116-1.5.737-3.254 1.105-5.262 1.105Zm-.241-12.152c1.151 0 2.142-.263 2.972-.789.857-.526 1.513-1.262 1.968-2.21.482-.972.723-2.116.723-3.431 0-2-.509-3.578-1.526-4.735-.991-1.157-2.357-1.736-4.097-1.736-1.767 0-3.16.579-4.177 1.736-1.018 1.157-1.527 2.736-1.527 4.735 0 1.315.228 2.459.683 3.432.482.947 1.151 1.683 2.008 2.21.857.525 1.848.788 2.973.788ZM111.021 27.873V7.83h4.659v20.043h-4.659Zm2.329-21.916a2.93 2.93 0 0 1-2.129-.868 2.893 2.893 0 0 1-.843-2.09c0-.816.281-1.513.843-2.092.59-.605 1.299-.907 2.129-.907.83 0 1.54.302 2.129.907.616.58.924 1.276.924 2.091 0 .816-.308 1.513-.924 2.091a2.929 2.929 0 0 1-2.129.868ZM119.565 27.873V7.83h4.619v2.92c.669-1.131 1.553-2 2.651-2.604 1.098-.631 2.356-.947 3.776-.947 2.303 0 4.097.737 5.382 2.21 1.312 1.446 1.968 3.458 1.968 6.036v12.428h-4.659V15.76c0-1.525-.348-2.682-1.044-3.471-.697-.816-1.728-1.223-3.093-1.223-.964 0-1.821.262-2.571.788-.75.5-1.339 1.21-1.767 2.131-.429.92-.643 1.999-.643 3.235v10.653h-4.619ZM150.601 28.504c-2.089 0-3.923-.447-5.503-1.342a9.548 9.548 0 0 1-3.615-3.787c-.857-1.63-1.285-3.472-1.285-5.523 0-2.026.415-3.84 1.245-5.445a9.273 9.273 0 0 1 3.575-3.788c1.553-.947 3.374-1.42 5.462-1.42 2.035 0 3.763.447 5.182 1.341 1.419.868 2.49 2.105 3.213 3.71.75 1.577 1.125 3.431 1.125 5.562 0 .42-.014.79-.04 1.105h-15.264c.134 1.946.723 3.419 1.768 4.418 1.044.974 2.436 1.46 4.177 1.46 1.312 0 2.383-.302 3.213-.907.83-.605 1.54-1.447 2.129-2.525l3.696 1.341c-.831 1.894-2.022 3.34-3.575 4.34-1.527.973-3.361 1.46-5.503 1.46Zm4.9-12.704c-.08-1.578-.576-2.775-1.486-3.59-.884-.842-2.062-1.263-3.535-1.263-1.499 0-2.744.421-3.735 1.263-.991.815-1.634 2.012-1.928 3.59h10.684Z"/></svg>
