<svg xmlns="http://www.w3.org/2000/svg" width="110" height="34" viewBox="0 0 110 34" fill="none">
    <path d="M50.9014 2.20752V4.56665H44.6166V7.62409H50.5239V9.98322H44.6166V13.3238H50.9014V15.6829H41.6536V2.20752H50.9014Z" fill="#0D101A"/>
    <path d="M62.6431 10.6438C62.6431 14.2108 60.3972 15.9094 57.9814 15.9094C56.6037 15.9094 55.4713 15.2866 54.9806 14.5316H54.9617V19.0612H52.1308V8.0393L52.0741 5.5858H54.8674L54.9617 6.92579H54.9806C55.509 6.05762 56.7169 5.35932 58.0947 5.35932C60.8312 5.35932 62.6431 7.30325 62.6431 10.6438ZM54.773 10.6438C54.773 12.6821 55.6978 13.9088 57.2831 13.9088C58.8685 13.9088 59.8121 12.6821 59.8121 10.6438C59.8121 8.62436 58.8685 7.37874 57.2831 7.37874C55.6978 7.37874 54.773 8.62436 54.773 10.6438Z" fill="#0D101A"/>
    <path d="M66.4593 4.43454H63.5528V2.20752H66.4593V4.43454ZM66.4215 15.6829H63.5905V5.5858H66.4215V15.6829Z" fill="#0D101A"/>
    <path d="M71.9776 15.9094C68.9956 15.9094 67.2782 14.777 67.2215 12.5877H70.0525C70.128 13.6635 70.864 14.173 71.9776 14.173C73.1099 14.173 73.8082 13.739 73.8082 12.9652C73.8082 12.2669 73.3175 12.0215 72.1663 11.7762L71.2415 11.5874C68.6936 11.0779 67.4103 10.4739 67.4103 8.54887C67.4103 6.66156 69.241 5.35932 71.8266 5.35932C74.3744 5.35932 76.3184 6.37847 76.3939 8.43563H73.5629C73.5063 7.52972 72.6947 7.09564 71.8266 7.09564C70.9395 7.09564 70.1846 7.4731 70.1846 8.19028C70.1846 8.86971 70.6942 9.09619 71.7133 9.30379L72.6381 9.49252C75.186 10.021 76.5826 10.6249 76.5826 12.6443C76.5826 14.6071 74.733 15.9094 71.9776 15.9094Z" fill="#0D101A"/>
    <path d="M82.2368 15.9094C79.0095 15.9094 76.9524 13.9843 76.9524 10.6249C76.9524 7.2655 79.0095 5.35932 82.2368 5.35932C85.4641 5.35932 87.5024 7.2655 87.5024 10.6249C87.5024 13.9843 85.4641 15.9094 82.2368 15.9094ZM82.2368 14.0032C83.841 14.0032 84.6715 12.8519 84.6715 10.6249C84.6715 8.39788 83.841 7.2655 82.2368 7.2655C80.6326 7.2655 79.7833 8.39788 79.7833 10.6249C79.7833 12.8519 80.6326 14.0032 82.2368 14.0032Z" fill="#0D101A"/>
    <path d="M87.9518 10.6249C87.9518 7.0579 89.9901 5.35932 92.5757 5.35932C93.9346 5.35932 95.1236 6.05762 95.6143 6.73705H95.6332V2.20752H98.4641V13.2294L98.5207 15.6829H95.7275L95.6332 14.3429H95.6143C95.1991 15.1922 94.0478 15.9094 92.5002 15.9094C89.6693 15.9094 87.9518 13.9654 87.9518 10.6249ZM95.8219 10.6249C95.8219 8.58662 94.916 7.35987 93.3307 7.35987C91.7264 7.35987 90.7828 8.58662 90.7828 10.6249C90.7828 12.6632 91.7264 13.9088 93.3307 13.9088C94.916 13.9088 95.8219 12.6632 95.8219 10.6249Z" fill="#0D101A"/>
    <path d="M109.641 11.21H102.224C102.356 13.1916 103.148 14.0975 104.639 14.0975C105.715 14.0975 106.489 13.5502 106.678 12.4933H109.509C109.263 14.6637 107.168 15.9094 104.715 15.9094C101.318 15.9094 99.4305 14.0598 99.4305 10.6249C99.4305 7.19001 101.582 5.35932 104.639 5.35932C107.904 5.35932 109.641 7.22775 109.641 10.7759V11.21ZM104.621 7.15226C103.394 7.15226 102.545 7.90718 102.28 9.51139H106.829C106.64 7.90718 105.885 7.15226 104.621 7.15226Z" fill="#0D101A"/>
    <path d="M45.9075 32.4431C42.6802 32.4431 40.623 30.5181 40.623 27.1587C40.623 23.7992 42.6802 21.8931 45.9075 21.8931C49.1348 21.8931 51.1731 23.7992 51.1731 27.1587C51.1731 30.5181 49.1348 32.4431 45.9075 32.4431ZM45.9075 30.5369C47.5117 30.5369 48.3421 29.3857 48.3421 27.1587C48.3421 24.9316 47.5117 23.7992 45.9075 23.7992C44.3033 23.7992 43.454 24.9316 43.454 27.1587C43.454 29.3857 44.3033 30.5369 45.9075 30.5369Z" fill="#0D101A"/>
    <path d="M58.1715 21.8931C60.4362 21.8931 61.9083 23.2519 61.9083 25.7054V32.2166H59.0774V26.1961C59.0774 24.7618 58.4168 23.9691 57.2089 23.9691C55.7557 23.9691 54.9442 25.026 54.9442 26.7434V32.2166H52.1132V23.7992L52.0755 22.1195H54.8687L54.9442 23.5162H55.0008C55.5292 22.5914 56.7182 21.8931 58.1715 21.8931Z" fill="#0D101A"/>
    <path d="M72.9244 27.7437H65.5073C65.6394 29.7254 66.4321 30.6313 67.9231 30.6313C68.9988 30.6313 69.7726 30.084 69.9614 29.0271H72.7923C72.547 31.1975 70.4521 32.4431 67.9986 32.4431C64.6014 32.4431 62.7141 30.5935 62.7141 27.1587C62.7141 23.7238 64.8656 21.8931 67.9231 21.8931C71.1881 21.8931 72.9244 23.7615 72.9244 27.3096V27.7437ZM67.9042 23.686C66.6775 23.686 65.8282 24.4409 65.5639 26.0451H70.1124C69.9236 24.4409 69.1687 23.686 67.9042 23.686Z" fill="#0D101A"/>
    <path fill-rule="evenodd" clip-rule="evenodd" d="M34 0H0V34H34V0ZM17.8831 12.0327V9.27295H7.06494V25.0366H17.8831V22.2768H10.5312V18.3691H17.4416V15.6093H10.5312V12.0327H17.8831ZM27.2267 25.0366V9.27295H24.4228C23.893 11.5028 22.9215 12.2093 19.9852 12.4301V14.5937H23.8709V25.0366H27.2267Z" fill="#0D101A"/>
</svg>