<svg xmlns="http://www.w3.org/2000/svg" viewBox="0 0 267.36 52.53"><path d="m0 0h267.36v52.53h-267.36z" fill="#fff"/><g fill="#053776"><path d="m25.3 12.27h3.47v11.22h15.51v-11.22h3.51v29.18h-3.51v-14.65h-15.51v14.65h-3.47z"/><path d="m57.59 12.27h3.47v29.18h-3.47z"/><path d="m99 26.39v1c0 9.31-5.67 14.86-14.57 14.86a15.29 15.29 0 0 1 -7.35-1.72c-4.77-2.61-7.51-7.42-7.51-13.34 0-4.86 1.55-8.78 4.7-11.76a14.47 14.47 0 0 1 10.36-3.79c5.56 0 9.68 2 12.41 6.12l-2.89 2.33a10.28 10.28 0 0 0 -9.39-5.31c-6.78 0-11.43 5-11.43 12.41 0 7 4.77 11.92 11.43 11.92 5.79 0 10.12-3.88 10.53-9.6h-8.35v-3.1z"/><path d="m106.9 12.27h3.47v11.22h15.51v-11.22h3.51v29.18h-3.51v-14.65h-15.51v14.65h-3.47z"/><path d="m167.23 26.39v1c0 9.31-5.67 14.86-14.57 14.86a15.22 15.22 0 0 1 -7.34-1.72c-4.78-2.61-7.51-7.42-7.51-13.34 0-4.86 1.55-8.78 4.69-11.76a14.48 14.48 0 0 1 10.37-3.79c5.55 0 9.67 2 12.41 6.12l-2.9 2.33a10.28 10.28 0 0 0 -9.38-5.33c-6.78 0-11.43 5-11.43 12.41 0 7 4.78 11.92 11.43 11.92 5.8 0 10.12-3.88 10.53-9.6h-8.33v-3.1z"/><path d="m197.65 41.45h-3.76l-3.79-8.94h-11.39l-3.8 8.94h-3.75l13.22-30.32zm-17.92-11.92h9.27l-4.62-10.73z"/><path d="m206.28 15.58h-8.28v-3.31h20v3.31h-8.2v25.87h-3.51z"/><path d="m224.65 12.27h15.35v3.18h-11.89v8.37h11.89v3.23h-11.89v11.18h11.89v3.22h-15.35z"/></g></svg>