<svg width="126" height="25" viewBox="0 0 126 25" fill="none" xmlns="http://www.w3.org/2000/svg">
<path d="M7.86362 0.81842C11.2808 0.81842 14.4931 2.98109 14.4931 7.15886H10.633C10.633 5.31403 9.26097 4.35133 7.93943 4.35133C6.50093 4.35133 5.25257 5.31365 5.25212 6.63154H5.25281C5.25211 11.5375 16.8091 8.03246 16.8091 16.6395V16.6416C16.8091 21.0225 13.22 24.1094 8.37875 24.1094C3.16278 24.1094 -0.603953 20.7204 0.0803156 14.8432H4.10671C3.65966 18.039 5.01071 20.7204 8.38369 20.7204C11.0878 20.7204 12.7021 18.9375 12.7021 16.7977C12.7021 11.2882 1.2875 15.4509 1.28747 6.63369C1.28747 3.36302 4.44642 0.818423 7.86362 0.81842Z" fill="#321E37"/>
<path d="M115.949 0.898932C121.373 0.898946 124.441 4.20953 125.431 7.83719H120.89C120.406 6.63011 119.252 4.68124 115.949 4.68124C112.646 4.68125 110.112 7.394 110.112 12.5038C110.112 17.6136 112.592 20.3256 115.949 20.3256C119.306 20.3256 121.591 18.3005 121.754 14.9664H115.517V11.1286H125.895C126.822 20.0848 121.448 24.1094 115.95 24.1094C110.453 24.1094 105.908 19.9658 105.908 12.5038C105.908 5.04181 110.526 0.898932 115.949 0.898932Z" fill="#321E37"/>
<path d="M30.7391 5.18358H25.1455V23.6946H21.1065V5.18358H15.5445V1.31506H30.7391V5.18358Z" fill="#321E37"/>
<path fill-rule="evenodd" clip-rule="evenodd" d="M46.9513 23.6946H42.5964L41.3029 19.3779H33.7927L32.4992 23.6946H28.2707L35.7487 1.31506H39.5358L46.9513 23.6946ZM34.6138 15.5415H40.3246L37.5166 6.71706L34.6138 15.5415Z" fill="#321E37"/>
<path fill-rule="evenodd" clip-rule="evenodd" d="M56.3396 1.31436C56.3396 1.31436 63.7552 1.2417 63.7552 7.58139C63.7552 10.3134 62.3782 11.8967 60.8103 12.8144H60.811C62.5431 13.6888 63.7558 15.6747 63.7558 17.7041V23.6946H59.6852V18.3789C59.6852 16.5013 58.1938 14.98 56.3403 14.9764L52.5687 14.9664V23.6939H48.5613V1.31436H56.3396ZM52.5687 11.1293H56.3403V11.13C56.3403 11.13 59.6852 11.1299 59.6852 8.14073C59.6852 5.15153 56.3403 5.1515 56.3403 5.1515H52.5687V11.1293Z" fill="#321E37"/>
<path d="M85.7062 23.6946H81.668V1.31506H85.7062V23.6946Z" fill="#321E37"/>
<path d="M99.9028 15.9897V1.31506H103.658V23.6946H100.061L92.2193 8.31678L92.2396 23.6946H88.463V1.31506H92.4073L99.9028 15.9897Z" fill="#321E37"/>
<path d="M70.546 19.8261H79.2543V23.6939H66.514V1.31506H70.546V19.8261Z" fill="#321E37"/>
</svg>
